<svg id="Layer_1" data-name="Layer 1" xmlns="http://www.w3.org/2000/svg" viewBox="0 0 800.29 733.86"><path d="M1197.36,549.38a7.68,7.68,0,0,0-11.66,5.79c-3.3,33.7-.87,68.14,7.73,99.1,11.72,42.2,33,75.51,55.54,110.78,21.42,33.53,43.58,68.2,56.93,111.43,11.37,36.8,16.11,79.14,14.11,125.85-1.74,40.55-8.47,83.39-20,127.34q-3.19,12.18-6.74,24.18a7.67,7.67,0,0,0,7.36,9.84h91.82a7.68,7.68,0,0,0,7.68-7.68V677.87a7.69,7.69,0,0,0-3.67-6.55ZM1373,1144.26h-46.87a7.61,7.61,0,0,1-7.35-9.56l0-.1c11.88-45.29,18.81-89.51,20.61-131.43,2.1-48.94-2.93-93.5-15-132.43-14.13-45.74-37-81.54-59.13-116.16-21.73-34-42.25-66.12-53.19-105.52a242.82,242.82,0,0,1-8.34-59,7.69,7.69,0,0,1,11.7-6.75L1377,682.21a7.69,7.69,0,0,1,3.67,6.55v447.81A7.68,7.68,0,0,1,1373,1144.26Z" transform="translate(-599.86 -429.83)"/><path d="M922.84,725.47c-6.89-22.82-15.75-45.23-24.33-66.9-15.93-40.26-32.4-81.9-38.07-130-.07-.56-.13-1.12-.2-1.68a7.68,7.68,0,0,0-11.64-5.7l-147,90A7.7,7.7,0,0,0,699,621.85c10.84,17.59,23,34.4,35.37,51.62,31.84,44.13,64.75,89.76,76.71,153.9,7.41,39.8,6,83.37-4.2,129.48a457,457,0,0,1-44.08,117.23c-15,27.75-32,53.2-49.33,77.49a7.67,7.67,0,0,0,6.26,12.12H839.25a7.7,7.7,0,0,0,6.25-3.2c13.61-19,27.16-38.74,38.93-59.89C943.23,995,958.67,844.19,922.84,725.47Zm-55.4,365.68c-9.92,17.83-21.27,34.72-32,49.86a7.68,7.68,0,0,1-6.27,3.25H756.78a7.69,7.69,0,0,1-6.4-11.93c10-15.19,20.1-31.55,29.54-49a476.73,476.73,0,0,0,46-122.29c10.77-48.68,12.23-94.85,4.33-137.24-12.75-68.42-47-115.85-80.05-161.71-8-11.05-16.11-22.34-23.82-33.8a7.68,7.68,0,0,1,2.36-10.85L833.93,553a7.68,7.68,0,0,1,11.54,5c7.84,39.13,21.59,73.87,35,107.68,8.42,21.3,17.14,43.32,23.79,65.37C938.64,845.1,923.85,989.8,867.44,1091.15Z" transform="translate(-599.86 -429.83)"/><path d="M793,835.85c-10.66-57.23-40.4-98.46-71.89-142.11-13.93-19.31-28.08-39-40.66-60.33a7.68,7.68,0,0,0-10.63-2.66l-66.25,40.57a7.69,7.69,0,0,0-3.67,6.55V1156a7.68,7.68,0,0,0,7.68,7.68h66.53a7.68,7.68,0,0,0,6.17-3.09c23.89-32.17,48-65.6,68.08-102.69C767.57,1022.38,810.44,929.61,793,835.85Zm-61.73,212.8c-17.75,32.79-38.77,62.66-60.77,92.49a7.7,7.7,0,0,1-6.18,3.12H627a7.68,7.68,0,0,1-7.68-7.69V688.76a7.69,7.69,0,0,1,3.67-6.55l40.44-24.77a7.67,7.67,0,0,1,10.46,2.4c10.2,15.84,20.94,30.73,31.43,45.27C735.48,747,764,786.46,773.85,839.41,790.19,927.07,749.49,1014.94,731.23,1048.65Z" transform="translate(-599.86 -429.83)"/><path d="M1119.07,991.15c-6.18-13.58-12.88-27.3-19.36-40.57C1075.26,900.5,1050,848.7,1042.14,785.7,1032,704,1053,622.36,1073.27,543.43c3-11.8,6.17-24,9.12-35.88q2.46-10,4.64-19.63a7.69,7.69,0,0,0-3.48-8.25L1004,431a7.67,7.67,0,0,0-8,0L881.33,501.19a7.68,7.68,0,0,0-3.66,7.05q.44,7.2,1.28,14.32c5.13,43.49,20.11,81.34,36,121.42,8.81,22.26,17.92,45.28,25.19,69.37,38.56,127.78,21.95,290-41.34,403.73-6.72,12.07-13.89,23.57-21.28,34.68a7.68,7.68,0,0,0,6.39,11.93h263.61a7.66,7.66,0,0,0,7.66-7C1159.79,1097,1139.36,1035.69,1119.07,991.15Zm9.59,153.11H918.88a7.68,7.68,0,0,1-6.66-11.51c1.21-2.08,2.38-4.15,3.53-6.22,65.68-118,82.94-286.3,43-418.79-7.5-24.87-16.76-48.27-25.72-70.91-15.38-38.87-29.9-75.57-34.74-116.55,0-.46-.11-.92-.16-1.39a7.69,7.69,0,0,1,3.63-7.4L996,453.76a7.67,7.67,0,0,1,8,0l57.42,35.16a7.68,7.68,0,0,1,3.46,8.33c-.45,1.88-.91,3.76-1.37,5.62-2.93,11.83-6.06,24-9.08,35.72-20.75,80.68-42.22,164.11-31.59,249.51,8.23,66.22,34.24,119.49,59.39,171,6.44,13.18,13.07,26.77,19.14,40.1,16.33,35.85,34.34,86.66,35,137.33A7.67,7.67,0,0,1,1128.66,1144.26Z" transform="translate(-599.86 -429.83)"/><path d="M1288.7,888.8c-12.17-39.41-32.39-71.06-53.8-104.57-22.62-35.39-46-72-58.94-118.55-11.1-40-13.17-85.08-6.94-128.27a7.63,7.63,0,0,0-3.59-7.59l-51-31.23a7.68,7.68,0,0,0-11.49,4.8q-1.41,6-2.93,12.16c-3,12-6.14,24.33-9.2,36.21-19.39,75.37-39.44,153.31-30.19,227.66,7.13,57.31,31.26,106.74,54.6,154.54,6.56,13.44,13.34,27.33,19.68,41.24,21.77,47.82,43.53,113.78,39.1,180.25a7.7,7.7,0,0,0,7.66,8.24h82.82a7.67,7.67,0,0,0,7.33-5.37c3.84-12.29,7.44-24.66,10.71-37.15C1305.6,1033.15,1307.8,950.63,1288.7,888.8Zm-25,227.44c-1.92,7.32-4,14.78-6.28,22.5a7.7,7.7,0,0,1-7.37,5.52h-48.39a7.69,7.69,0,0,1-7.68-7.68c-.34-64.72-21.91-126.61-41.41-169.43-6.45-14.15-13.29-28.16-19.9-41.71-22.64-46.38-46-94.33-52.78-148.42-8.79-70.68,10.79-146.8,29.73-220.42,1.94-7.54,3.91-15.21,5.86-22.89a7.67,7.67,0,0,1,11.45-4.66l17.63,10.79a7.68,7.68,0,0,1,3.63,7.33c-4.59,42.56-1.48,85.89,9,123.71,13.72,49.37,37.9,87.22,61.29,123.82,20.68,32.37,40.21,62.94,51.61,99.84C1288.17,952.94,1285.89,1031.68,1263.72,1116.24Z" transform="translate(-599.86 -429.83)"/></svg>