<svg width="195" height="29" viewBox="0 0 195 29" fill="none" xmlns="http://www.w3.org/2000/svg">
<path d="M3.93161 27.9723L0.119995 1.86445V1.66207H5.65189L8.78888 23.5198H9.59842L13.3763 1.66207H22.7535L26.5652 23.5198H27.3747L30.478 1.66207H35.6725V1.86445L31.8609 27.9723H22.0789L18.301 6.11457H17.4915L13.7136 27.9723H3.93161Z" fill="white"/>
<path d="M47.7404 28.4783C44.3897 28.4783 41.8824 27.5225 40.2183 25.6111C38.5767 23.6772 37.756 21.0912 37.756 17.853C37.756 14.6148 38.5767 12.04 40.2183 10.1286C41.8824 8.19465 44.3897 7.22769 47.7404 7.22769C51.091 7.22769 53.5871 8.19465 55.2286 10.1286C56.8927 12.04 57.7247 14.6148 57.7247 17.853C57.7247 21.0912 56.8927 23.6772 55.2286 25.6111C53.5871 27.5225 51.091 28.4783 47.7404 28.4783ZM47.7404 24.8353C49.2245 24.8353 50.3152 24.2506 51.0123 23.0813C51.7094 21.9119 52.0579 20.1579 52.0579 17.8192C52.0579 15.503 51.7094 13.7715 51.0123 12.6247C50.3152 11.4553 49.2245 10.8706 47.7404 10.8706C46.2562 10.8706 45.1655 11.4553 44.4684 12.6247C43.7713 13.7715 43.4228 15.503 43.4228 17.8192C43.4228 20.1579 43.7713 21.9119 44.4684 23.0813C45.1655 24.2506 46.2562 24.8353 47.7404 24.8353Z" fill="white"/>
<path d="M69.995 28.4783C66.6443 28.4783 64.137 27.5225 62.4729 25.6111C60.8313 23.6772 60.0106 21.0912 60.0106 17.853C60.0106 14.6148 60.8313 12.04 62.4729 10.1286C64.137 8.19465 66.6443 7.22769 69.995 7.22769C73.3456 7.22769 75.8417 8.19465 77.4832 10.1286C79.1473 12.04 79.9793 14.6148 79.9793 17.853C79.9793 21.0912 79.1473 23.6772 77.4832 25.6111C75.8417 27.5225 73.3456 28.4783 69.995 28.4783ZM69.995 24.8353C71.4791 24.8353 72.5698 24.2506 73.2669 23.0813C73.964 21.9119 74.3125 20.1579 74.3125 17.8192C74.3125 15.503 73.964 13.7715 73.2669 12.6247C72.5698 11.4553 71.4791 10.8706 69.995 10.8706C68.5108 10.8706 67.4201 11.4553 66.723 12.6247C66.0259 13.7715 65.6774 15.503 65.6774 17.8192C65.6774 20.1579 66.0259 21.9119 66.723 23.0813C67.4201 24.2506 68.5108 24.8353 69.995 24.8353Z" fill="white"/>
<path d="M90.3606 28.3771C88.5166 28.3771 86.9987 27.9273 85.8069 27.0278C84.6151 26.1058 83.7268 24.8466 83.1422 23.2499C82.5575 21.6533 82.2652 19.8431 82.2652 17.8192C82.2652 15.7279 82.5575 13.8952 83.1422 12.3211C83.7493 10.747 84.6488 9.5214 85.8406 8.6444C87.055 7.76739 88.5616 7.32889 90.3606 7.32889C91.6874 7.32889 92.7668 7.565 93.5988 8.03724C94.4533 8.50947 95.1279 9.15036 95.6227 9.95991H96.4322V0.987445H101.897V27.9723H96.837V25.3413H96.0274C95.5552 26.1958 94.8693 26.9154 93.9698 27.5001C93.0703 28.0847 91.8673 28.3771 90.3606 28.3771ZM91.9122 24.5317C93.284 24.5317 94.3746 23.9358 95.1841 22.744C96.0162 21.5297 96.4322 19.8993 96.4322 17.853C96.4322 15.7841 96.0162 14.1538 95.1841 12.962C94.3746 11.7701 93.284 11.1742 91.9122 11.1742C90.6754 11.1742 89.6972 11.7364 88.9776 12.8608C88.2805 13.9627 87.932 15.6267 87.932 17.853C87.932 20.0792 88.2805 21.7545 88.9776 22.8789C89.6972 23.9808 90.6754 24.5317 91.9122 24.5317Z" fill="white"/>
<path d="M117.455 28.4783C113.632 28.4783 110.663 27.2752 108.55 24.869C106.458 22.4629 105.413 19.1123 105.413 14.8172C105.413 10.5671 106.447 7.22769 108.516 4.79906C110.585 2.37042 113.553 1.1561 117.421 1.1561C119.737 1.1561 121.716 1.5946 123.357 2.47161C124.999 3.32613 126.281 4.51796 127.203 6.0471C128.125 7.57625 128.665 9.33026 128.822 11.3092H123.189C123.009 9.46519 122.413 8.02599 121.401 6.99157C120.389 5.93467 119.074 5.40622 117.455 5.40622C115.408 5.40622 113.868 6.227 112.833 7.86858C111.799 9.51016 111.282 11.8376 111.282 14.8509C111.282 17.9767 111.81 20.3266 112.867 21.9007C113.947 23.4523 115.464 24.2281 117.421 24.2281C119.107 24.2281 120.445 23.6885 121.435 22.6091C122.447 21.5297 123.031 20.1017 123.189 18.3252H128.822C128.665 20.3041 128.125 22.0581 127.203 23.5873C126.281 25.1164 124.999 26.3195 123.357 27.1965C121.738 28.051 119.771 28.4783 117.455 28.4783Z" fill="white"/>
<path d="M132.128 27.9723V7.73366H137.12V11.4441H137.929C138.064 10.7695 138.312 10.1398 138.671 9.55514C139.054 8.94798 139.627 8.4645 140.392 8.1047C141.156 7.72242 142.179 7.53127 143.461 7.53127H144.541V12.456H143.056C141.145 12.456 139.751 12.9395 138.874 13.9064C138.019 14.8734 137.592 16.3238 137.592 18.2578V27.9723H132.128Z" fill="white"/>
<path d="M154.255 28.3771C152.366 28.3771 150.815 27.9273 149.6 27.0278C148.386 26.1058 147.486 24.8466 146.902 23.2499C146.317 21.6533 146.025 19.8431 146.025 17.8192C146.025 15.7279 146.317 13.8952 146.902 12.3211C147.509 10.747 148.42 9.5214 149.634 8.6444C150.848 7.76739 152.377 7.32889 154.221 7.32889C155.638 7.32889 156.796 7.60998 157.696 8.17216C158.618 8.71186 159.315 9.4427 159.787 10.3647H160.597V7.73366H165.656V27.9723H160.597V25.3413H159.787C159.315 26.1958 158.629 26.9154 157.729 27.5001C156.83 28.0847 155.672 28.3771 154.255 28.3771ZM155.672 24.5317C157.044 24.5317 158.134 23.9358 158.944 22.744C159.776 21.5297 160.192 19.8993 160.192 17.853C160.192 15.7841 159.776 14.1538 158.944 12.962C158.134 11.7701 157.044 11.1742 155.672 11.1742C154.435 11.1742 153.457 11.7364 152.737 12.8608C152.04 13.9627 151.692 15.6267 151.692 17.853C151.692 20.0792 152.04 21.7545 152.737 22.8789C153.457 23.9808 154.435 24.5317 155.672 24.5317Z" fill="white"/>
<path d="M172.006 27.9723V11.579H169.172V7.73366H172.006V6.51934C172.006 5.35 172.208 4.34931 172.613 3.51727C173.04 2.68524 173.737 2.04435 174.704 1.5946C175.694 1.14486 177.032 0.919983 178.718 0.919983C179.37 0.919983 180.011 0.953714 180.641 1.02118V4.73159C180.303 4.66413 179.91 4.6304 179.46 4.6304C178.696 4.6304 178.145 4.79906 177.807 5.13637C177.493 5.45119 177.335 5.97964 177.335 6.72173V7.73366H180.641V11.579H177.335V27.9723H172.006Z" fill="white"/>
<path d="M187.104 27.9723C186.587 27.3651 186.171 26.6343 185.856 25.7798C185.564 24.9253 185.417 23.6435 185.417 21.9344V11.579H182.651V7.73366H185.485V2.674H190.848V7.73366H194.12V11.579H190.848V21.361C190.848 23.1375 191.05 24.498 191.455 25.4425C191.86 26.3869 192.343 27.1628 192.906 27.7699V27.9723H187.104Z" fill="white"/>
</svg>
