<svg width="235" height="147" viewBox="0 0 235 147" fill="none" xmlns="http://www.w3.org/2000/svg">
<path d="M145.613 17.6051C145.455 17.5077 145.275 17.4522 145.09 17.4439C144.904 17.4355 144.72 17.4746 144.554 17.5574C144.388 17.6403 144.246 17.7641 144.14 17.9174C144.035 18.0706 143.97 18.2482 143.952 18.4335C143.482 23.2553 143.828 28.1829 145.053 32.6127C146.723 38.6506 149.754 43.4166 152.965 48.463C156.016 53.2604 159.173 58.2209 161.074 64.4062C162.694 69.6716 163.369 75.7295 163.084 82.4128C162.836 88.2146 161.878 94.3441 160.235 100.632C159.932 101.794 159.612 102.947 159.275 104.092C159.227 104.256 159.218 104.429 159.248 104.597C159.278 104.765 159.346 104.923 159.448 105.06C159.55 105.197 159.682 105.308 159.834 105.384C159.986 105.46 160.154 105.5 160.324 105.5H173.403C173.693 105.5 173.972 105.384 174.177 105.178C174.382 104.972 174.497 104.693 174.497 104.401V35.9893C174.497 35.8013 174.449 35.6164 174.357 35.4523C174.266 35.2882 174.134 35.1505 173.974 35.0522L145.613 17.6051ZM170.633 102.72H163.956C163.79 102.72 163.626 102.681 163.477 102.608C163.329 102.534 163.199 102.427 163.097 102.295C162.996 102.163 162.927 102.009 162.894 101.845C162.861 101.682 162.866 101.513 162.909 101.352V101.338C164.601 94.8578 165.588 88.5308 165.845 82.5329C166.144 75.5306 165.427 69.155 163.708 63.585C161.695 57.0405 158.438 51.9183 155.285 46.9649C152.19 42.1002 149.267 37.5045 147.708 31.8672C146.969 29.113 146.57 26.2778 146.52 23.4256C146.515 23.2278 146.564 23.0324 146.66 22.8599C146.757 22.6874 146.897 22.5442 147.068 22.4454C147.239 22.3465 147.433 22.2957 147.629 22.2982C147.826 22.3008 148.019 22.3566 148.187 22.4598L171.202 36.6103C171.362 36.7086 171.494 36.8464 171.585 37.0104C171.677 37.1745 171.725 37.3594 171.725 37.5475V101.62C171.725 101.764 171.697 101.907 171.642 102.04C171.588 102.174 171.507 102.295 171.406 102.397C171.304 102.499 171.184 102.58 171.051 102.636C170.918 102.691 170.776 102.72 170.633 102.72Z" fill="#DEB885"/>
<path d="M106.508 42.7999C105.527 39.5348 104.264 36.3284 103.042 33.2279C100.773 27.4675 98.4269 21.5097 97.6192 14.6276C97.6092 14.5475 97.6007 14.4674 97.5907 14.3873C97.5703 14.2035 97.504 14.0279 97.3981 13.8767C97.2921 13.7255 97.1499 13.6035 96.9846 13.5222C96.8193 13.4409 96.6362 13.4028 96.4523 13.4115C96.2684 13.4201 96.0896 13.4752 95.9326 13.5717L74.9927 26.4488C74.8678 26.5237 74.759 26.6229 74.6727 26.7404C74.5863 26.858 74.5241 26.9916 74.4896 27.1335C74.4551 27.2755 74.4491 27.4229 74.4719 27.5672C74.4947 27.7115 74.5458 27.8498 74.6223 27.974C76.1665 30.4908 77.8986 32.896 79.6607 35.3598C84.1963 41.6738 88.8843 48.2025 90.5879 57.3796C91.6435 63.0742 91.4426 69.3081 89.9897 75.9055C88.6729 81.7595 86.56 87.4035 83.7105 92.6787C81.5738 96.6491 79.1522 100.29 76.6835 103.766C76.5671 103.93 76.4979 104.123 76.4836 104.325C76.4694 104.526 76.5106 104.727 76.6027 104.906C76.6948 105.085 76.8344 105.236 77.0059 105.34C77.1775 105.445 77.3745 105.5 77.5753 105.5H94.6007C94.7746 105.5 94.946 105.459 95.1008 105.379C95.2556 105.299 95.3894 105.184 95.491 105.042C97.4297 102.324 99.3599 99.4992 101.037 96.4731C109.412 81.364 111.612 59.7862 106.508 42.7999ZM98.6163 95.121C97.2032 97.6721 95.5865 100.089 94.058 102.255C93.957 102.399 93.8232 102.516 93.6678 102.597C93.5124 102.678 93.3399 102.72 93.1648 102.72H82.853C82.6553 102.72 82.4614 102.665 82.2918 102.563C82.1222 102.461 81.9834 102.315 81.8899 102.14C81.7964 101.965 81.7519 101.768 81.7609 101.569C81.77 101.371 81.8323 101.179 81.9413 101.013C83.3658 98.8396 84.8045 96.4989 86.1492 94.0021C89.1226 88.4995 91.3275 82.6118 92.7019 76.505C94.236 69.5399 94.444 62.934 93.3187 56.8688C91.5025 47.0794 86.6236 40.2931 81.9157 33.7315C80.7761 32.1505 79.6208 30.5351 78.5226 28.8955C78.4398 28.7724 78.3828 28.6338 78.3549 28.488C78.327 28.3421 78.3289 28.1922 78.3603 28.0471C78.3917 27.902 78.4521 27.7648 78.5377 27.6438C78.6234 27.5228 78.7326 27.4205 78.8587 27.3431L93.8429 18.123C93.9927 18.0307 94.1624 17.976 94.3377 17.9635C94.5131 17.951 94.6888 17.9811 94.8501 18.0513C95.0113 18.1215 95.1534 18.2297 95.2642 18.3667C95.375 18.5037 95.4514 18.6655 95.4867 18.8384C96.6035 24.4371 98.5622 29.4077 100.472 34.2452C101.672 37.2928 102.914 40.4434 103.861 43.5983C108.759 59.9164 106.652 80.62 98.6163 95.121Z" fill="#98633B"/>
<path d="M88.0125 58.593C86.494 50.4045 82.2576 44.5054 77.7719 38.26C75.7876 35.4971 73.772 32.6799 71.98 29.628C71.9063 29.5022 71.8085 29.3924 71.6922 29.3049C71.5758 29.2175 71.4433 29.1542 71.3023 29.1188C71.1614 29.0833 71.0148 29.0765 70.8711 29.0986C70.7275 29.1207 70.5897 29.1713 70.4657 29.2475L61.0285 35.0522C60.8689 35.1505 60.7371 35.2882 60.6455 35.4523C60.554 35.6164 60.5059 35.8013 60.5058 35.9893V104.4C60.5058 104.691 60.621 104.971 60.8262 105.177C61.0313 105.383 61.3096 105.499 61.5998 105.499H71.0768C71.2475 105.499 71.4159 105.459 71.5685 105.382C71.7211 105.305 71.8537 105.194 71.9558 105.056C75.3588 100.454 78.7933 95.6705 81.6536 90.3637C84.3901 85.2815 90.4968 72.0081 88.0125 58.593ZM79.2192 89.0402C76.6907 93.7317 73.6965 98.0055 70.5626 102.274C70.4607 102.412 70.3281 102.524 70.1752 102.602C70.0223 102.679 69.8535 102.72 69.6823 102.72H64.3661C64.2223 102.72 64.0799 102.691 63.9471 102.636C63.8143 102.581 63.6936 102.5 63.592 102.398C63.4904 102.295 63.4099 102.174 63.355 102.041C63.3001 101.907 63.2719 101.764 63.2721 101.62V37.5475C63.2722 37.3594 63.3204 37.1745 63.4119 37.0104C63.5034 36.8464 63.6353 36.7086 63.7949 36.6103L69.5555 33.0662C69.7992 32.9164 70.0917 32.8684 70.3702 32.9326C70.6488 32.9968 70.8912 33.168 71.0455 33.4096C72.4985 35.676 74.0284 37.8064 75.5227 39.8868C79.8189 45.8804 83.8815 51.5263 85.2846 59.1023C87.6123 71.6446 81.8146 84.217 79.2135 89.0402H79.2192Z" fill="#DEB885"/>
<path d="M134.461 80.8131C133.58 78.8701 132.626 76.9071 131.703 75.0084C128.22 67.843 124.622 60.4315 123.502 51.4175C122.058 39.728 125.049 28.047 127.937 16.7538C128.364 15.0654 128.815 13.3199 129.236 11.6201C129.469 10.6662 129.69 9.73003 129.897 8.81146C129.947 8.58735 129.926 8.35301 129.837 8.14131C129.749 7.92962 129.596 7.75119 129.401 7.63106L118.069 0.667399C117.898 0.562076 117.7 0.506348 117.499 0.506348C117.298 0.506348 117.101 0.562076 116.93 0.667399L100.595 10.7101C100.425 10.8145 100.286 10.9637 100.194 11.1415C100.102 11.3193 100.061 11.5189 100.074 11.7188C100.115 12.4056 100.176 13.0886 100.256 13.7677C100.987 19.9902 103.121 25.4058 105.384 31.1404C106.639 34.3253 107.937 37.619 108.972 41.0658C114.465 59.3484 112.099 82.5587 103.084 98.831C102.126 100.558 101.105 102.203 100.052 103.793C99.9428 103.958 99.88 104.151 99.8707 104.349C99.8613 104.548 99.9057 104.745 99.9991 104.92C100.092 105.095 100.231 105.241 100.401 105.344C100.571 105.446 100.765 105.5 100.962 105.5H138.513C138.787 105.501 139.051 105.399 139.253 105.213C139.456 105.027 139.581 104.772 139.604 104.498C140.261 95.958 137.351 87.1859 134.461 80.8131ZM135.827 102.72H105.944C105.752 102.72 105.563 102.669 105.397 102.573C105.231 102.477 105.093 102.338 104.997 102.171C104.9 102.005 104.85 101.815 104.849 101.622C104.849 101.43 104.899 101.24 104.995 101.073C105.168 100.775 105.334 100.479 105.498 100.183C114.854 83.2998 117.313 59.2196 111.623 40.2631C110.555 36.7047 109.236 33.3567 107.96 30.1174C105.769 24.5559 103.7 19.3049 103.011 13.4415C103.011 13.3757 102.995 13.3099 102.988 13.2426C102.965 13.035 103.002 12.8252 103.093 12.6378C103.185 12.4503 103.328 12.2928 103.505 12.1838L116.93 3.92388C117.101 3.81856 117.298 3.76282 117.499 3.76282C117.7 3.76282 117.898 3.81856 118.069 3.92388L126.249 8.95454C126.445 9.07559 126.599 9.25606 126.687 9.47012C126.776 9.68419 126.795 9.9209 126.741 10.1464C126.677 10.4154 126.612 10.6844 126.546 10.9505C126.129 12.6431 125.683 14.3844 125.253 16.0613C122.297 27.6049 119.239 39.542 120.753 51.7609C121.925 61.2356 125.63 68.8574 129.213 76.2274C130.13 78.1132 131.075 80.0577 131.939 81.9649C134.266 87.0943 136.831 94.3641 136.925 101.614C136.926 101.759 136.899 101.903 136.844 102.038C136.789 102.172 136.708 102.295 136.606 102.398C136.504 102.5 136.382 102.582 136.249 102.637C136.115 102.693 135.971 102.721 135.827 102.72Z" fill="#42291A"/>
<path d="M158.624 66.169C156.891 60.5302 154.01 56.0018 150.96 51.2072C147.738 46.1436 144.408 40.9055 142.564 34.2452C140.983 28.522 140.688 22.072 141.576 15.8924C141.606 15.681 141.573 15.4655 141.482 15.2725C141.391 15.0794 141.246 14.9174 141.065 14.8065L133.8 10.3381C133.652 10.2473 133.485 10.1929 133.312 10.1795C133.14 10.1662 132.966 10.1941 132.806 10.2612C132.647 10.3282 132.505 10.4324 132.393 10.5652C132.281 10.698 132.202 10.8555 132.163 11.0249C132.029 11.5972 131.89 12.1772 131.746 12.7647C131.318 14.4817 130.871 16.2459 130.435 17.9456C127.673 28.7295 124.817 39.8811 126.134 50.519C127.15 58.7189 130.587 65.7913 133.912 72.6304C134.847 74.5534 135.812 76.5408 136.716 78.531C139.817 85.3731 142.916 94.8105 142.285 104.321C142.275 104.472 142.295 104.623 142.345 104.765C142.395 104.907 142.474 105.038 142.576 105.148C142.678 105.259 142.802 105.347 142.94 105.408C143.078 105.468 143.226 105.5 143.376 105.5H155.174C155.407 105.5 155.634 105.426 155.822 105.288C156.009 105.15 156.148 104.955 156.218 104.732C156.765 102.973 157.278 101.203 157.744 99.4163C161.031 86.8224 161.345 75.0156 158.624 66.169ZM155.063 98.7109C154.789 99.7582 154.493 100.826 154.168 101.93C154.101 102.158 153.963 102.358 153.774 102.5C153.585 102.642 153.355 102.719 153.118 102.72H146.225C145.935 102.72 145.657 102.604 145.452 102.398C145.247 102.192 145.132 101.912 145.131 101.621C145.083 92.361 142.01 83.5059 139.233 77.3792C138.314 75.3547 137.339 73.3501 136.398 71.4114C133.173 64.7754 129.845 57.9148 128.879 50.1756C127.627 40.0628 130.416 29.1716 133.114 18.6381C133.391 17.5593 133.671 16.4619 133.949 15.3631C133.991 15.1961 134.072 15.0414 134.184 14.9114C134.297 14.7815 134.438 14.68 134.597 14.6151C134.756 14.5501 134.927 14.5237 135.098 14.5378C135.269 14.5519 135.434 14.6062 135.58 14.6963L138.092 16.2401C138.267 16.3483 138.409 16.5041 138.501 16.6896C138.592 16.8752 138.63 17.0829 138.609 17.2889C137.955 23.3783 138.398 29.578 139.891 34.9892C141.845 42.053 145.29 47.4686 148.621 52.7052C151.567 57.3367 154.349 61.7106 155.973 66.9903C158.549 75.3461 158.224 86.6121 155.066 98.7109H155.063Z" fill="#98633B"/>
<path d="M4.61716 145.894L0 114.631V114.389H6.70101L10.501 140.562H11.4816L16.0579 114.389H27.4169L32.0341 140.562H33.0147L36.7738 114.389H43.0662V114.631L38.4491 145.894H26.5997L22.0234 119.72H21.0428L16.4665 145.894H4.61716Z" fill="#5A3828"/>
<path d="M57.6845 146.5C53.6257 146.5 50.5885 145.356 48.5727 143.067C46.5842 140.751 45.59 137.654 45.59 133.777C45.59 129.899 46.5842 126.816 48.5727 124.527C50.5885 122.211 53.6257 121.053 57.6845 121.053C61.7432 121.053 64.7668 122.211 66.7553 124.527C68.7711 126.816 69.779 129.899 69.779 133.777C69.779 137.654 68.7711 140.751 66.7553 143.067C64.7668 145.356 61.7432 146.5 57.6845 146.5ZM57.6845 142.138C59.4823 142.138 60.8034 141.438 61.6479 140.037C62.4923 138.637 62.9145 136.537 62.9145 133.736C62.9145 130.963 62.4923 128.889 61.6479 127.516C60.8034 126.116 59.4823 125.416 57.6845 125.416C55.8866 125.416 54.5655 126.116 53.7211 127.516C52.8766 128.889 52.4544 130.963 52.4544 133.736C52.4544 136.537 52.8766 138.637 53.7211 140.037C54.5655 141.438 55.8866 142.138 57.6845 142.138Z" fill="#5A3828"/>
<path d="M84.6423 146.5C80.5836 146.5 77.5464 145.356 75.5306 143.067C73.5421 140.751 72.5478 137.654 72.5478 133.777C72.5478 129.899 73.5421 126.816 75.5306 124.527C77.5464 122.211 80.5836 121.053 84.6423 121.053C88.7011 121.053 91.7247 122.211 93.7132 124.527C95.729 126.816 96.7368 129.899 96.7368 133.777C96.7368 137.654 95.729 140.751 93.7132 143.067C91.7247 145.356 88.7011 146.5 84.6423 146.5ZM84.6423 142.138C86.4402 142.138 87.7613 141.438 88.6058 140.037C89.4502 138.637 89.8724 136.537 89.8724 133.736C89.8724 130.963 89.4502 128.889 88.6058 127.516C87.7613 126.116 86.4402 125.416 84.6423 125.416C82.8445 125.416 81.5234 126.116 80.6789 127.516C79.8345 128.889 79.4123 130.963 79.4123 133.736C79.4123 136.537 79.8345 138.637 80.6789 140.037C81.5234 141.438 82.8445 142.138 84.6423 142.138Z" fill="#5A3828"/>
<path d="M109.312 146.379C107.078 146.379 105.24 145.84 103.796 144.763C102.352 143.659 101.276 142.151 100.568 140.239C99.8599 138.327 99.5057 136.16 99.5057 133.736C99.5057 131.232 99.8599 129.037 100.568 127.152C101.304 125.267 102.393 123.8 103.837 122.75C105.308 121.7 107.133 121.174 109.312 121.174C110.919 121.174 112.227 121.457 113.235 122.023C114.27 122.588 115.087 123.356 115.686 124.325H116.667V113.581H123.286V145.894H117.157V142.744H116.177C115.604 143.767 114.774 144.629 113.684 145.329C112.594 146.029 111.137 146.379 109.312 146.379ZM111.192 141.774C112.853 141.774 114.174 141.061 115.155 139.633C116.163 138.179 116.667 136.227 116.667 133.777C116.667 131.299 116.163 129.347 115.155 127.92C114.174 126.493 112.853 125.779 111.192 125.779C109.693 125.779 108.509 126.452 107.637 127.799C106.792 129.118 106.37 131.111 106.37 133.777C106.37 136.442 106.792 138.449 107.637 139.795C108.509 141.114 109.693 141.774 111.192 141.774Z" fill="#5A3828"/>
<path d="M142.132 146.5C137.501 146.5 133.906 145.059 131.345 142.178C128.812 139.297 127.545 135.285 127.545 130.141C127.545 125.052 128.798 121.053 131.304 118.145C133.81 115.237 137.406 113.783 142.091 113.783C144.897 113.783 147.294 114.308 149.283 115.358C151.271 116.381 152.824 117.808 153.941 119.64C155.057 121.471 155.711 123.571 155.902 125.941H149.078C148.86 123.733 148.138 122.009 146.913 120.771C145.687 119.505 144.093 118.872 142.132 118.872C139.653 118.872 137.787 119.855 136.534 121.821C135.281 123.786 134.655 126.573 134.655 130.182C134.655 133.925 135.295 136.739 136.575 138.624C137.883 140.482 139.721 141.411 142.091 141.411C144.134 141.411 145.755 140.764 146.954 139.472C148.179 138.179 148.888 136.469 149.078 134.342H155.902C155.711 136.712 155.057 138.812 153.941 140.643C152.824 142.474 151.271 143.915 149.283 144.965C147.321 145.988 144.938 146.5 142.132 146.5Z" fill="#DEB886"/>
<path d="M159.906 145.894V121.659H165.953V126.102H166.934C167.097 125.294 167.397 124.54 167.833 123.84C168.296 123.113 168.991 122.534 169.917 122.103C170.843 121.646 172.082 121.417 173.635 121.417H174.942V127.314H173.145C170.829 127.314 169.14 127.893 168.078 129.051C167.043 130.209 166.525 131.946 166.525 134.261V145.894H159.906Z" fill="#DEB886"/>
<path d="M186.71 146.379C184.422 146.379 182.542 145.84 181.071 144.763C179.601 143.659 178.511 142.151 177.803 140.239C177.094 138.327 176.74 136.16 176.74 133.736C176.74 131.232 177.094 129.037 177.803 127.152C178.538 125.267 179.641 123.8 181.112 122.75C182.583 121.7 184.436 121.174 186.669 121.174C188.385 121.174 189.788 121.511 190.878 122.184C191.995 122.83 192.839 123.706 193.411 124.81H194.392V121.659H200.521V145.894H194.392V142.744H193.411C192.839 143.767 192.008 144.629 190.919 145.329C189.829 146.029 188.426 146.379 186.71 146.379ZM188.426 141.774C190.088 141.774 191.409 141.061 192.39 139.633C193.398 138.179 193.901 136.227 193.901 133.777C193.901 131.299 193.398 129.347 192.39 127.92C191.409 126.493 190.088 125.779 188.426 125.779C186.928 125.779 185.743 126.452 184.871 127.799C184.027 129.118 183.605 131.111 183.605 133.777C183.605 136.442 184.027 138.449 184.871 139.795C185.743 141.114 186.928 141.774 188.426 141.774Z" fill="#DEB886"/>
<path d="M208.212 145.894V126.264H204.78V121.659H208.212V120.205C208.212 118.805 208.457 117.606 208.947 116.61C209.465 115.614 210.309 114.846 211.481 114.308C212.679 113.769 214.3 113.5 216.343 113.5C217.133 113.5 217.909 113.54 218.672 113.621V118.064C218.263 117.983 217.787 117.943 217.242 117.943C216.316 117.943 215.648 118.145 215.24 118.549C214.858 118.926 214.668 119.559 214.668 120.447V121.659H218.672V126.264H214.668V145.894H208.212Z" fill="#DEB886"/>
<path d="M226.501 145.894C225.875 145.167 225.371 144.292 224.989 143.269C224.635 142.245 224.458 140.711 224.458 138.664V126.264H221.108V121.659H224.54V115.6H231.037V121.659H235V126.264H231.037V137.977C231.037 140.105 231.282 141.734 231.772 142.865C232.262 143.996 232.848 144.925 233.529 145.652V145.894H226.501Z" fill="#DEB886"/>
</svg>
