<svg width="154" height="22" viewBox="0 0 154 22" fill="none" xmlns="http://www.w3.org/2000/svg">
<path d="M3.01333 21.3867L0 0.746666V0.586666H4.37333L6.85333 17.8667H7.49333L10.48 0.586666H17.8933L20.9067 17.8667H21.5467L24 0.586666H28.1067V0.746666L25.0933 21.3867H17.36L14.3733 4.10667H13.7333L10.7467 21.3867H3.01333Z" fill="#5A3828"/>
<path d="M37.6471 21.7867C34.9982 21.7867 33.016 21.0311 31.7004 19.52C30.4026 17.9911 29.7537 15.9467 29.7537 13.3867C29.7537 10.8267 30.4026 8.79111 31.7004 7.28C33.016 5.75111 34.9982 4.98667 37.6471 4.98667C40.296 4.98667 42.2693 5.75111 43.5671 7.28C44.8826 8.79111 45.5404 10.8267 45.5404 13.3867C45.5404 15.9467 44.8826 17.9911 43.5671 19.52C42.2693 21.0311 40.296 21.7867 37.6471 21.7867ZM37.6471 18.9067C38.8204 18.9067 39.6826 18.4444 40.2337 17.52C40.7849 16.5956 41.0604 15.2089 41.0604 13.36C41.0604 11.5289 40.7849 10.16 40.2337 9.25333C39.6826 8.32889 38.8204 7.86667 37.6471 7.86667C36.4737 7.86667 35.6115 8.32889 35.0604 9.25333C34.5093 10.16 34.2337 11.5289 34.2337 13.36C34.2337 15.2089 34.5093 16.5956 35.0604 17.52C35.6115 18.4444 36.4737 18.9067 37.6471 18.9067Z" fill="#5A3828"/>
<path d="M55.2408 21.7867C52.5919 21.7867 50.6097 21.0311 49.2942 19.52C47.9964 17.9911 47.3475 15.9467 47.3475 13.3867C47.3475 10.8267 47.9964 8.79111 49.2942 7.28C50.6097 5.75111 52.5919 4.98667 55.2408 4.98667C57.8897 4.98667 59.8631 5.75111 61.1608 7.28C62.4764 8.79111 63.1342 10.8267 63.1342 13.3867C63.1342 15.9467 62.4764 17.9911 61.1608 19.52C59.8631 21.0311 57.8897 21.7867 55.2408 21.7867ZM55.2408 18.9067C56.4142 18.9067 57.2764 18.4444 57.8275 17.52C58.3786 16.5956 58.6542 15.2089 58.6542 13.36C58.6542 11.5289 58.3786 10.16 57.8275 9.25333C57.2764 8.32889 56.4142 7.86667 55.2408 7.86667C54.0675 7.86667 53.2053 8.32889 52.6542 9.25333C52.1031 10.16 51.8275 11.5289 51.8275 13.36C51.8275 15.2089 52.1031 16.5956 52.6542 17.52C53.2053 18.4444 54.0675 18.9067 55.2408 18.9067Z" fill="#5A3828"/>
<path d="M71.3412 21.7067C69.8835 21.7067 68.6835 21.3511 67.7412 20.64C66.799 19.9111 66.0968 18.9156 65.6346 17.6533C65.1724 16.3911 64.9413 14.96 64.9413 13.36C64.9413 11.7067 65.1724 10.2578 65.6346 9.01333C66.1146 7.76889 66.8257 6.8 67.7679 6.10667C68.7279 5.41333 69.919 5.06667 71.3412 5.06667C72.3901 5.06667 73.2435 5.25333 73.9013 5.62667C74.5768 6 75.1101 6.50667 75.5013 7.14667H76.1413V0.0533333H80.4613V21.3867H76.4613V19.3067H75.8213C75.4479 19.9822 74.9057 20.5511 74.1946 21.0133C73.4835 21.4756 72.5324 21.7067 71.3412 21.7067ZM72.5679 18.6667C73.6524 18.6667 74.5146 18.1956 75.1546 17.2533C75.8124 16.2933 76.1413 15.0044 76.1413 13.3867C76.1413 11.7511 75.8124 10.4622 75.1546 9.52C74.5146 8.57778 73.6524 8.10667 72.5679 8.10667C71.5901 8.10667 70.8168 8.55111 70.2479 9.44C69.6968 10.3111 69.4212 11.6267 69.4212 13.3867C69.4212 15.1467 69.6968 16.4711 70.2479 17.36C70.8168 18.2311 71.5901 18.6667 72.5679 18.6667Z" fill="#5A3828"/>
<path d="M92.7608 21.7867C89.7386 21.7867 87.3919 20.8356 85.7208 18.9333C84.0675 17.0311 83.2408 14.3822 83.2408 10.9867C83.2408 7.62667 84.0586 4.98667 85.6942 3.06667C87.3297 1.14667 89.6764 0.186666 92.7342 0.186666C94.5653 0.186666 96.1297 0.533333 97.4275 1.22667C98.7253 1.90222 99.7386 2.84444 100.467 4.05333C101.196 5.26222 101.623 6.64889 101.747 8.21333H97.2942C97.1519 6.75556 96.6808 5.61778 95.8808 4.8C95.0808 3.96444 94.0408 3.54667 92.7608 3.54667C91.1431 3.54667 89.9253 4.19556 89.1075 5.49333C88.2897 6.79111 87.8808 8.63111 87.8808 11.0133C87.8808 13.4844 88.2986 15.3422 89.1342 16.5867C89.9875 17.8133 91.1875 18.4267 92.7342 18.4267C94.0675 18.4267 95.1253 18 95.9075 17.1467C96.7075 16.2933 97.1697 15.1644 97.2942 13.76H101.747C101.623 15.3244 101.196 16.7111 100.467 17.92C99.7386 19.1289 98.7253 20.08 97.4275 20.7733C96.1475 21.4489 94.5919 21.7867 92.7608 21.7867Z" fill="#DEB886"/>
<path d="M104.361 21.3867V5.38667H108.308V8.32H108.948C109.054 7.78667 109.25 7.28889 109.534 6.82667C109.836 6.34667 110.29 5.96444 110.894 5.68C111.499 5.37778 112.307 5.22667 113.321 5.22667H114.174V9.12H113.001C111.49 9.12 110.388 9.50222 109.694 10.2667C109.019 11.0311 108.681 12.1778 108.681 13.7067V21.3867H104.361Z" fill="#DEB886"/>
<path d="M121.854 21.7067C120.361 21.7067 119.134 21.3511 118.174 20.64C117.214 19.9111 116.503 18.9156 116.041 17.6533C115.579 16.3911 115.348 14.96 115.348 13.36C115.348 11.7067 115.579 10.2578 116.041 9.01333C116.521 7.76889 117.241 6.8 118.201 6.10667C119.161 5.41333 120.37 5.06667 121.827 5.06667C122.947 5.06667 123.863 5.28889 124.574 5.73333C125.303 6.16 125.854 6.73778 126.228 7.46667H126.868V5.38667H130.867V21.3867H126.868V19.3067H126.228C125.854 19.9822 125.312 20.5511 124.601 21.0133C123.89 21.4756 122.974 21.7067 121.854 21.7067ZM122.974 18.6667C124.059 18.6667 124.921 18.1956 125.561 17.2533C126.219 16.2933 126.548 15.0044 126.548 13.3867C126.548 11.7511 126.219 10.4622 125.561 9.52C124.921 8.57778 124.059 8.10667 122.974 8.10667C121.996 8.10667 121.223 8.55111 120.654 9.44C120.103 10.3111 119.827 11.6267 119.827 13.3867C119.827 15.1467 120.103 16.4711 120.654 17.36C121.223 18.2311 121.996 18.6667 122.974 18.6667Z" fill="#DEB886"/>
<path d="M135.887 21.3867V8.42667H133.647V5.38667H135.887V4.42667C135.887 3.50222 136.047 2.71111 136.367 2.05333C136.705 1.39556 137.256 0.888889 138.02 0.533333C138.803 0.177778 139.86 0 141.194 0C141.709 0 142.216 0.0266666 142.714 0.0799999V3.01333C142.447 2.96 142.136 2.93333 141.78 2.93333C141.176 2.93333 140.74 3.06667 140.474 3.33333C140.225 3.58222 140.1 4 140.1 4.58667V5.38667H142.714V8.42667H140.1V21.3867H135.887Z" fill="#DEB886"/>
<path d="M147.823 21.3867C147.414 20.9067 147.086 20.3289 146.837 19.6533C146.606 18.9778 146.49 17.9644 146.49 16.6133V8.42667H144.303V5.38667H146.543V1.38667H150.783V5.38667H153.37V8.42667H150.783V16.16C150.783 17.5644 150.943 18.64 151.263 19.3867C151.583 20.1333 151.966 20.7467 152.41 21.2267V21.3867H147.823Z" fill="#DEB886"/>
</svg>
